<?xml version="1.0" encoding="utf-8"?>
<svg width="537.578" height="400.033" viewBox="0 0 537.578 400.033" fill="none" stroke="none"
    version="1.1" xmlns="http://www.w3.org/2000/svg">
  <path id="Şekil" d="M356.671 200.017L537.578 141.243L425.764 295.123L425.764 104.91L537.578 258.79L356.671 200.017ZM369.004 306.963C321.405 382.183 229.822 416.89 144.326 392.111C58.8298 367.333 0 289.031 0 200.017C0 111.002 58.8298 32.7007 144.326 7.92175C229.822 -16.8572 321.405 17.8506 369.004 93.0699C324.708 43.7793 254.611 26.8969 192.731 50.6162C130.851 74.3355 89.9982 133.747 89.9982 200.017C89.9982 266.286 130.851 325.698 192.731 349.417C254.611 373.136 324.708 356.254 369.004 306.963C369.004 306.963 369.004 306.963 369.004 306.963Z" style="fill:#FFFFFF;mix-blend-mode:normal;" />
</svg>